<mxfile host="app.diagrams.net" modified="2024-04-28T15:40:26.730Z" agent="Mozilla/5.0 (Windows NT 10.0; Win64; x64) AppleWebKit/537.36 (KHTML, like Gecko) Chrome/114.0.0.0 Safari/537.36" version="24.3.1" etag="RNnOSN9Qg0zadGksoeM1" type="github">
  <diagram name="第 1 页" id="t31V32Dkpstlcu7plj35">
    <mxGraphModel>
      <root>
        <mxCell id="0" />
        <mxCell id="1" parent="0" />
      </root>
    </mxGraphModel>
  </diagram>
</mxfile>
